<?xml version="1.0" encoding="utf-8"?>
<!-- Generator: Adobe Illustrator 21.0.2, SVG Export Plug-In . SVG Version: 6.00 Build 0)  -->
<svg version="1.1" id="Layer_1" xmlns="http://www.w3.org/2000/svg" xmlns:xlink="http://www.w3.org/1999/xlink" x="0px" y="0px"
	 width="349.9px" height="100.2px" viewBox="0 0 349.9 100.2" style="enable-background:new 0 0 349.9 100.2;" xml:space="preserve"
	>
<style type="text/css">
	.st0{fill:#003764;}
	.st1{fill:#05CE7C;}
</style>
<title>quay</title>
<path class="st0" d="M180.2,96.6c-1.6,0.8-3.3,1.3-5.1,1.6c-2.4,0.5-4.8,0.7-7.2,0.7c-7.4,0-13.7-1.7-18.8-5.1c-5-3.3-9-8-11.4-13.4
	c-3.6-0.7-7-2.1-10.1-4.1c-3.1-2-5.7-4.6-7.8-7.6c-2.2-3.3-3.9-6.9-4.9-10.7c-1.2-4.4-1.8-8.9-1.7-13.5c-0.1-5.2,0.7-10.3,2.3-15.3
	c1.4-4.2,3.6-8,6.5-11.3c2.8-3,6.2-5.4,10-7c8.3-3.2,17.5-3.2,25.9,0c3.8,1.6,7.2,3.9,10,7c2.9,3.3,5.1,7.1,6.5,11.3
	c1.6,4.9,2.4,10,2.3,15.2c0,9.4-2,17.2-6,23.3c-3.7,5.9-9.5,10.1-16.2,12c1.6,2.4,3.9,4.2,6.6,5.1c2.8,1,5.7,1.5,8.7,1.5
	c1.4,0,2.8-0.1,4.2-0.4c1.2-0.2,2.4-0.5,3.5-0.9L180.2,96.6z M129.2,44.5c0,7.5,1.4,13.3,4.2,17.5c4,6.3,12.4,8.1,18.6,4.1
	c1.6-1.1,3-2.4,4.1-4.1c2.8-4.1,4.2-10,4.2-17.5c0-7-1.4-12.5-4.2-16.4c-4.4-6.3-13.1-7.8-19.4-3.4c-1.3,0.9-2.5,2.1-3.4,3.4
	C130.6,32,129.3,37.5,129.2,44.5L129.2,44.5z"/>
<path class="st0" d="M183.6,9.8h15.9V49c0,6.9,1,11.7,3.1,14.4c2.1,2.7,5.1,4.1,9,4.1c3.9,0,7-1.4,9.1-4.1s3.2-7.5,3.2-14.4V9.8
	h15.2v37.5c0,11.7-2.3,20.3-7,25.6s-11.5,8-20.5,8c-9.1,0-16-2.7-20.8-8c-4.8-5.3-7.2-13.9-7.2-25.6L183.6,9.8L183.6,9.8z"/>
<path class="st0" d="M281.2,63.1h-21.3l-4.3,16.6h-16.1l21.9-69.9h19l21.9,69.9h-16.8L281.2,63.1z M278,50.8l-1.6-6.4
	c-1-3.5-2-7.2-2.9-11.2s-1.9-7.7-2.8-11.4h-0.4c-0.9,3.7-1.7,7.5-2.6,11.4c-0.9,3.9-1.8,7.6-2.8,11.1l-1.7,6.4H278z"/>
<path class="st0" d="M312.1,54.8L291,9.8h16.9l6.2,16.1c1,2.7,1.9,5.2,2.8,7.7s1.8,5,2.9,7.7h0.4c1-2.7,2-5.3,3-7.8s2-5,3-7.7
	l6.3-16.1H349l-21.1,45.1v24.9h-15.8L312.1,54.8L312.1,54.8z"/>
<polygon class="st1" points="76,1.2 96.9,45.4 76,89.5 58.3,89.5 79.1,45.4 58.3,1.2 "/>
<polygon class="st0" points="58.3,89.5 37.4,45.4 58.3,1.2 76,1.2 55.2,45.4 76,89.5 "/>
<polygon class="st1" points="48.9,21.1 39.5,1.2 21.8,1.2 40,39.9 "/>
<polygon class="st1" points="40,50.8 21.8,89.5 39.5,89.5 48.9,69.6 "/>
<polygon class="st0" points="21.8,89.5 0.9,45.4 21.8,1.2 39.5,1.2 18.6,45.4 39.5,89.5 "/>
</svg>
