<?xml version="1.0" encoding="utf-8"?>
<!-- Generator: Adobe Illustrator 22.1.0, SVG Export Plug-In . SVG Version: 6.00 Build 0)  -->
<svg version="1.1" id="Layer_1" xmlns="http://www.w3.org/2000/svg" xmlns:xlink="http://www.w3.org/1999/xlink" x="0px" y="0px"
	 viewBox="0 0 267.3 43.9" style="enable-background:new 0 0 267.3 43.9;" xml:space="preserve">
<style type="text/css">
	.st0{fill:#02AEF6;}
	.st1{fill:#11649A;}
</style>
<path class="st0" d="M15.7,19.1h2.8c2.2,0,3.8-0.4,4.7-1.2c0.9-0.8,1.3-1.8,1.3-3c0-1.2-0.4-2.2-1.2-3c-0.8-0.8-2.2-1.2-4.4-1.2
	h-3.3V19.1z M4.1,3.3h19.1c4.2,0,7.3,1,9.3,3c2.1,2,3.1,4.8,3.1,8.4c0,3.8-1.1,6.7-3.4,8.8c-2.3,2.1-5.7,3.2-10.3,3.2h-6.3v13.8H4.1
	V3.3z"/>
<polygon class="st0" points="39.7,3.3 51.2,3.3 51.2,31.3 69.1,31.3 69.1,40.4 39.7,40.4 "/>
<path class="st0" d="M94.5,3.3h11.5v22.1c0,2.2-0.3,4.3-1,6.2c-0.7,1.9-1.8,3.7-3.2,5.1c-1.5,1.5-3,2.5-4.6,3.1
	c-2.2,0.8-4.9,1.2-8,1.2c-1.8,0-3.8-0.1-5.9-0.4c-2.1-0.3-3.9-0.8-5.4-1.5c-1.4-0.8-2.8-1.8-3.9-3.2c-1.2-1.4-2-2.8-2.4-4.3
	c-0.7-2.4-1.1-4.5-1.1-6.3V3.3h11.5v22.7c0,2,0.6,3.6,1.7,4.7c1.1,1.1,2.7,1.7,4.7,1.7c2,0,3.5-0.6,4.7-1.7c1.1-1.1,1.7-2.7,1.7-4.8
	V3.3z"/>
<polygon class="st0" points="109.3,3.3 144.2,3.3 144.2,12.4 132.5,12.4 132.5,40.4 121,40.4 121,12.4 109.3,12.4 "/>
<path class="st0" d="M199.2,18.3h4.8c0.5,0,1.5-0.2,3-0.5c0.8-0.2,1.4-0.5,1.9-1.2c0.5-0.6,0.7-1.3,0.7-2.2c0-1.2-0.4-2.1-1.1-2.8
	c-0.8-0.6-2.2-1-4.3-1h-5V18.3z M187.7,40.4V3.3h19.1c3.5,0,6.3,0.3,8.1,0.9c1.9,0.6,3.4,1.7,4.5,3.4c1.1,1.6,1.7,3.7,1.7,6
	c0,2.1-0.4,3.8-1.3,5.3c-0.9,1.5-2.1,2.7-3.6,3.6c-1,0.6-2.3,1.1-4,1.5c1.4,0.5,2.4,0.9,3,1.4c0.4,0.3,1,1,1.8,2
	c0.8,1,1.3,1.8,1.6,2.3l5.6,10.8h-13l-6.1-11.4c-0.8-1.5-1.5-2.4-2.1-2.9c-0.8-0.6-1.8-0.9-2.8-0.9h-1v15.1H187.7z"/>
<path class="st0" d="M246.7,26.3l-4.1-13.4l-4.1,13.4H246.7z M249.1,34.3h-13l-1.8,6.1h-11.7l14-37.2H249l14,37.2h-12L249.1,34.3z"
	/>
<path class="st0" d="M169.5,30.1c-1.4,1.6-3.3,2.4-5.7,2.4c-2.4,0-4.3-0.8-5.7-2.5c-6.7-7.8-13.6-8.2-13.6-8.2c0,0,0,0,0,0.1
	c0,4.3,0.9,8,2.6,10.8c1.7,2.9,3.9,5,6.7,6.3c2.7,1.3,6.2,2,10.4,2c4.1,0,7.6-0.8,10.3-2.3c2.8-1.5,4.9-3.7,6.3-6.5
	c1.4-2.7,2.2-6.2,2.2-10.4h-11.5C171.5,25.8,170.8,28.5,169.5,30.1"/>
<path class="st1" d="M158,13.6c1.4-1.6,3.3-2.4,5.7-2.4c2.4,0,4.3,0.8,5.7,2.5c6.7,7.8,13.6,8.2,13.6,8.2c0,0,0,0,0-0.1
	c0-4.3-0.9-8-2.6-10.8c-1.7-2.9-3.9-5-6.7-6.3c-2.7-1.3-6.2-2-10.4-2c-4.1,0-7.6,0.8-10.3,2.3c-2.8,1.5-4.9,3.7-6.3,6.5
	c-1.4,2.7-2.2,6.2-2.2,10.4H156C156,17.9,156.7,15.1,158,13.6"/>
</svg>
