<svg viewBox="0 0 140 162" xmlns="http://www.w3.org/2000/svg"><defs><linearGradient x1="82.1790632%" y1="-0.473917274%" x2="34.6134572%" y2="114.440607%" id="0"><stop stop-color="#2b3990" offset="0%"/><stop stop-color="#1e62a7" offset="16%"/><stop stop-color="#1485bc" offset="32%"/><stop stop-color="#0ba1cc" offset="49%"/><stop stop-color="#05b4d7" offset="66%"/><stop stop-color="#01c0de" offset="83%"/><stop stop-color="#00c4e0" offset="100%"/></linearGradient></defs><g fill="none" fill-rule="evenodd"><g fill="url(#0)"><path d="m12 119.4c54.06 5.359 97.48-26.619 108.3-40.32 10.829-13.703-5.591-79.08-5.591-79.08-17.799 43.726-50.16 110-102.71 119.42v-.022" mix-blend-mode="multiply"/><path d="m37 101.95c31.891 1.174 56.16-18.88 62.02-27.19 5.852-8.314-3.108-45.757-3.108-45.757-8.863 25.938-33.522 63.735-58.909 72.951" mix-blend-mode="multiply"/></g><g fill="#149cb5" fill-rule="nonzero"><path d="m2.081 147.62c.986 1.023 2.159 1.856 3.458 2.454 1.289.61 2.701.928 4.131.93 1.514.091 3.01-.34 4.237-1.22.99-.771 1.552-1.957 1.513-3.198.018-.604-.104-1.204-.356-1.755-.231-.472-.558-.892-.961-1.234-.441-.367-.926-.679-1.445-.93l-1.786-.863-3.942-1.688c-.675-.291-1.332-.621-1.967-.989-.665-.379-1.271-.85-1.801-1.398-.547-.572-.988-1.234-1.301-1.956-.719-1.761-.667-3.736.144-5.458.431-.879 1.044-1.659 1.801-2.29.805-.659 1.729-1.164 2.724-1.487 1.114-.367 2.283-.548 3.458-.535 1.563-.01 3.111.307 4.54.93 1.332.574 2.542 1.392 3.564 2.409l-1.884 2.231c-.814-.778-1.758-1.412-2.792-1.874-1.09-.466-2.269-.696-3.458-.677-1.322-.065-2.629.304-3.715 1.049-.93.681-1.457 1.769-1.407 2.908-.018.58.12 1.155.401 1.666.285.455.658.852 1.097 1.168.457.35.949.654 1.468.907.53.263 1.074.511 1.634.744l3.904 1.651c.769.322 1.513.7 2.224 1.13.671.406 1.278.907 1.801 1.487.516.584.921 1.254 1.195 1.978.308.839.456 1.726.439 2.618.002 1.026-.22 2.04-.651 2.975-.438.94-1.075 1.776-1.869 2.454-.862.73-1.858 1.291-2.936 1.651-1.255.414-2.573.615-3.897.595-3.639.03-7.13-1.417-9.647-4l2.081-2.38"/><path d="m22.288 155.24v6.764h-3.288v-28.501h2.725l.282 2.307h.123c.885-.774 1.855-1.439 2.891-1.979 1.022-.542 2.154-.825 3.303-.826 1.149-.017 2.286.238 3.324.744.954.474 1.781 1.181 2.407 2.061.67.971 1.16 2.061 1.445 3.215.349 1.38.516 2.801.499 4.227.025 1.549-.205 3.091-.679 4.562-.404 1.242-1.029 2.395-1.843 3.401-.732.901-1.648 1.624-2.681 2.121-1 .486-2.094.74-3.202.744-.933-.006-1.855-.216-2.703-.618-.961-.454-1.868-1.02-2.703-1.689l.101 3.468m0-6.147c.757.692 1.625 1.244 2.566 1.63.691.286 1.424.448 2.168.476.775.007 1.54-.185 2.226-.558.693-.382 1.296-.919 1.763-1.57.531-.752.925-1.596 1.164-2.493.293-1.088.434-2.213.419-3.341.006-1-.089-1.997-.282-2.977-.156-.828-.462-1.618-.903-2.329-.404-.627-.956-1.139-1.604-1.488-.726-.374-1.53-.558-2.342-.536-.877.014-1.737.254-2.501.699-.973.566-1.88 1.245-2.703 2.024l.029 10.463"/><path d="m39.502 129.29c-.656.017-1.294-.2-1.78-.606-.461-.403-.722-.962-.722-1.548 0-.585.261-1.145.722-1.548 1.033-.782 2.52-.782 3.553 0 .463.402.725.962.725 1.548 0 .586-.262 1.146-.725 1.548-.484.405-1.119.622-1.773.606m-1.844 4.045h3.6v19.668h-3.6v-19.668"/><path d="m44 133.48h2.812l.288 2.811h.125c.903-.896 1.911-1.684 3-2.348 1.115-.648 2.394-.974 3.69-.942 2.101 0 3.636.642 4.605 1.927.969 1.285 1.461 3.186 1.476 5.702v12.368h-3.358v-11.926c0-1.845-.3-3.176-.9-3.992-.684-.855-1.76-1.315-2.863-1.225-.969-.018-1.922.246-2.738.761-.974.659-1.879 1.411-2.701 2.246v14.14h-3.358l-.081-19.52"/><path d="m62 133.48h2.787l.288 2.811h.126c.905-.896 1.915-1.684 3.01-2.348 1.117-.648 2.399-.975 3.697-.942 2.105 0 3.643.642 4.614 1.927.971 1.285 1.464 3.186 1.479 5.702v12.368h-3.431v-11.926c0-1.845-.301-3.176-.902-3.992-.685-.855-1.763-1.315-2.869-1.224-.971-.018-1.926.246-2.743.761-.976.659-1.883 1.411-2.706 2.246v14.14h-3.349v-19.52"/><path d="m80.01 148.31c-.05-2.11 1.121-4.065 3.02-5.04 2.01-1.169 5.188-1.986 9.523-2.452 0-.621-.063-1.241-.189-1.85-.115-.573-.343-1.118-.672-1.605-.328-.471-.766-.858-1.276-1.129-.637-.312-1.343-.46-2.054-.431-1.145-.011-2.279.215-3.33.661-.96.408-1.878.906-2.741 1.486l-1.382-2.348c1.103-.683 2.266-1.27 3.474-1.753 1.438-.578 2.978-.866 4.531-.847 2.482 0 4.282.743 5.4 2.229 1.197 1.768 1.784 3.867 1.676 5.988v12.281h-2.847l-.295-2.385h-.083c-.972.792-2.031 1.475-3.157 2.036-1.108.558-2.335.849-3.58.847-1.569.056-3.102-.475-4.289-1.486-1.183-1.076-1.816-2.615-1.729-4.198m3.391-.245c-.094.941.29 1.867 1.027 2.474.739.511 1.627.772 2.53.743.972.001 1.929-.234 2.787-.683 1.012-.547 1.948-1.218 2.787-1.998v-5.557c-1.452.173-2.892.433-4.312.78-.986.231-1.936.591-2.824 1.07-.621.335-1.142.824-1.51 1.419-.315.532-.482 1.137-.483 1.753"/><path d="m97 124h3.4v19.64h.13l8.7-10.43h3.79l-6.82 7.94 7.8 11.85h-3.79l-5.97-9.55-3.79 4.32v5.21h-3.4z"/><path d="m111 143.59c-.034-1.518.218-3.03.745-4.453.461-1.22 1.149-2.343 2.027-3.31.804-.88 1.78-1.587 2.869-2.078 1.049-.483 2.19-.736 3.346-.742 1.169-.018 2.328.207 3.405.661.98.42 1.844 1.07 2.518 1.893.705.88 1.231 1.889 1.55 2.969.372 1.255.553 2.559.536 3.867.007.618-.035 1.236-.127 1.848h-13.501c.03 1.898.741 3.723 2 5.144 1.218 1.271 2.924 1.96 4.687 1.893.907.01 1.81-.135 2.667-.43.817-.289 1.599-.668 2.332-1.128l1.2 2.227c-.93.572-1.913 1.054-2.936 1.44-1.176.428-2.421.637-3.673.616-1.296.003-2.58-.249-3.778-.742-1.151-.466-2.191-1.167-3.055-2.056-.898-.941-1.592-2.055-2.042-3.273-.52-1.389-.783-2.86-.775-4.342m14.05-1.522c0-2.058-.435-3.629-1.304-4.713-.888-1.094-2.248-1.698-3.658-1.625-.703-.003-1.399.144-2.042.43-.66.295-1.257.713-1.758 1.232-.551.574-.992 1.243-1.304 1.974-.363.858-.591 1.767-.678 2.694l10.744.007"/><path d="m129.01 133.45h2.789l.288 3.541h.126c.607-1.129 1.452-2.118 2.478-2.903.905-.703 2.026-1.087 3.181-1.088.731-.012 1.456.124 2.13.399l-.658 2.903c-.296-.097-.597-.177-.902-.239-.339-.059-.684-.085-1.028-.08-.972.043-1.902.397-2.648 1.01-1.104.934-1.932 2.142-2.397 3.498v12.51h-3.366l.007-19.549"/></g></g></svg>